<svg xmlns="http://www.w3.org/2000/svg" width="791" height="750"><rect width="791" height="750" x="0" y="0" fill="#FFFFFF" id="background"/><g transform="translate(20,21)" id="visualization"><g><rect x="0" y="4.000000000000057" height="42.187655756863634" width="6" fill="black"><title>2026: 2520.849999917</title></rect><rect x="745" y="0" height="228.89741024482154" width="6" fill="black"><title>Drama: 13677.366666736003</title></rect><rect x="745" y="230.89741024482154" height="37.200759160722015" width="6" fill="black"><title>Crime: 2222.866666678</title></rect><rect x="745" y="270.09816940554356" height="219.02932954911284" width="6" fill="black"><title>Comedy: 13087.716666643002</title></rect><rect x="745" y="491.1274989546564" height="28.69104226835657" width="6" fill="black"><title>Documentary: 1714.3833332819997</title></rect><rect x="745" y="521.818541223013" height="14.360443612165682" width="6" fill="black"><title>Thriller: 858.0833333609999</title></rect><rect x="745" y="538.1789848351787" height="13.71807978466245" width="6" fill="black"><title>Romance: 819.700000003</title></rect><rect x="745" y="553.8970646198411" height="30.29234957758956" width="6" fill="black"><title>Sci-Fi &amp; Fantasy: 1810.0666666630002</title></rect><rect x="0" y="48.18765575686369" height="157.07594637375172" width="6" fill="black"><title>2025: 9385.800000010999</title></rect><rect x="745" y="586.1894141974307" height="27.338256962272794" width="6" fill="black"><title>Horror: 1633.549999987</title></rect><rect x="745" y="615.5276711597035" height="15.490089073813351" width="6" fill="black"><title>Action &amp; Adventure: 925.5833333209999</title></rect><rect x="0" y="207.26360213061542" height="127.94810785936346" width="6" fill="black"><title>2024: 7645.316666693002</title></rect><rect x="745" y="633.0177602335168" height="74.98223976648319" width="6" fill="black"><title>Reality: 4480.433333354</title></rect><rect x="0" y="337.2117099899789" height="75.08655764427402" width="6" fill="black"><title>2023: 4486.666666719001</title></rect><rect x="0" y="414.2982676342529" height="139.34971713487556" width="6" fill="black"><title>2022: 8326.600000065999</title></rect><rect x="0" y="555.6479847691285" height="148.35201523087153" width="6" fill="black"><title>2021: 8864.516666622</title></rect></g><g fill="none" stroke-opacity="1"><g style="mix-blend-mode: multiply;"><path d="M6,12.605945949195455C375.5,12.605945949195455,375.5,8.605945949195398,745,8.605945949195398" stroke="rgb(94, 79, 162)" stroke-width="17.211891898390796"/><title>2026 → Drama: 1028.466666664</title></g><g style="mix-blend-mode: multiply;"><path d="M6,23.792643661319993C375.5,23.792643661319993,375.5,233.47816200775068,745,233.47816200775068" stroke="rgb(94, 79, 162)" stroke-width="5.16150352585828"/><title>2026 → Crime: 308.41666666</title></g><g style="mix-blend-mode: multiply;"><path d="M6,30.808299831864403C375.5,30.808299831864403,375.5,274.5330738131588,745,274.5330738131588" stroke="rgb(94, 79, 162)" stroke-width="8.869808815230545"/><title>2026 → Comedy: 530</title></g><g style="mix-blend-mode: multiply;"><path d="M6,36.571444163292284C375.5,36.571444163292284,375.5,492.455738878469,745,492.455738878469" stroke="rgb(94, 79, 162)" stroke-width="2.6564798476252123"/><title>2026 → Documentary: 158.73333333</title></g><g style="mix-blend-mode: multiply;"><path d="M6,39.05275923308486C375.5,39.05275923308486,375.5,522.971616368993,745,522.971616368993" stroke="rgb(94, 79, 162)" stroke-width="2.306150291959942"/><title>2026 → Thriller: 137.8</title></g><g style="mix-blend-mode: multiply;"><path d="M6,41.12028935365174C375.5,41.12028935365174,375.5,539.0934398097655,745,539.0934398097655" stroke="rgb(94, 79, 162)" stroke-width="1.828909949173807"/><title>2026 → Romance: 109.2833333</title></g><g style="mix-blend-mode: multiply;"><path d="M6,44.11120004255117C375.5,44.11120004255117,375.5,555.9735203341536,745,555.9735203341536" stroke="rgb(94, 79, 162)" stroke-width="4.152911428625051"/><title>2026 → Sci-Fi &amp; Fantasy: 248.14999996299997</title></g><g style="mix-blend-mode: multiply;"><path d="M6,178.77690259956034C375.5,178.77690259956034,375.5,564.7759688085439,745,564.7759688085439" stroke="rgb(105, 189, 169)" stroke-width="13.451985520155311"/><title>2025 → Sci-Fi &amp; Fantasy: 803.8000000000003</title></g><g style="mix-blend-mode: multiply;"><path d="M6,100.83875720684813C375.5,100.83875720684813,375.5,241.0771894089643,745,241.0771894089643" stroke="rgb(105, 189, 169)" stroke-width="10.036551276568957"/><title>2025 → Crime: 599.7166666600001</title></g><g style="mix-blend-mode: multiply;"><path d="M6,72.00406866271366C375.5,72.00406866271366,375.5,41.028304804240776,745,41.028304804240776" stroke="rgb(105, 189, 169)" stroke-width="47.63282581169995"/><title>2025 → Drama: 2846.2166666830003</title></g><g style="mix-blend-mode: multiply;"><path d="M6,137.96183580911276C375.5,137.96183580911276,375.5,311.07278118475426,745,311.07278118475426" stroke="rgb(105, 189, 169)" stroke-width="64.20960592796031"/><title>2025 → Comedy: 3836.7333333479996</title></g><g style="mix-blend-mode: multiply;"><path d="M6,189.35345229965324C375.5,189.35345229965324,375.5,590.0399711374458,745,590.0399711374458" stroke="rgb(105, 189, 169)" stroke-width="7.701113880030422"/><title>2025 → Horror: 460.16666666</title></g><g style="mix-blend-mode: multiply;"><path d="M6,170.07946931414358C375.5,170.07946931414358,375.5,493.7968093433323,745,493.7968093433323" stroke="rgb(105, 189, 169)" stroke-width="1"/><title>2025 → Documentary: 1.533333333</title></g><g style="mix-blend-mode: multiply;"><path d="M6,171.07160484733848C375.5,171.07160484733848,375.5,540.9871997764967,745,540.9871997764967" stroke="rgb(105, 189, 169)" stroke-width="1.9586099842884117"/><title>2025 → Romance: 117.033333333</title></g><g style="mix-blend-mode: multiply;"><path d="M6,199.23380568514193C375.5,199.23380568514193,375.5,621.557467605177,745,621.557467605177" stroke="rgb(105, 189, 169)" stroke-width="12.059592890947004"/><title>2025 → Action &amp; Adventure: 720.599999994</title></g><g style="mix-blend-mode: multiply;"><path d="M6,277.39268974356474C375.5,277.39268974356474,375.5,497.21768262048386,745,497.21768262048386" stroke="rgb(224, 243, 161)" stroke-width="6.816085472201725"/><title>2024 → Documentary: 407.28333332999995</title></g><g style="mix-blend-mode: multiply;"><path d="M6,318.4770584336043C375.5,318.4770584336043,375.5,649.7524117898913,745,649.7524117898913" stroke="rgb(224, 243, 161)" stroke-width="33.46930311274898"/><title>2024 → Reality: 1999.9000000199997</title></g><g style="mix-blend-mode: multiply;"><path d="M6,261.1396018641885C375.5,261.1396018641885,375.5,356.02262929200987,745,356.02262929200987" stroke="rgb(224, 243, 161)" stroke-width="25.690090286550877"/><title>2024 → Comedy: 1535.0666666560007</title></g><g style="mix-blend-mode: multiply;"><path d="M6,292.05590623151505C375.5,292.05590623151505,375.5,603.5770287231759,745,603.5770287231759" stroke="rgb(224, 243, 161)" stroke-width="19.373001291429553"/><title>2024 → Horror: 1157.5999999940002</title></g><g style="mix-blend-mode: multiply;"><path d="M6,247.45415628162849C375.5,247.45415628162849,375.5,246.93586548653332,745,246.93586548653332" stroke="rgb(224, 243, 161)" stroke-width="1.6808008785690651"/><title>2024 → Crime: 100.43333336699999</title></g><g style="mix-blend-mode: multiply;"><path d="M6,226.9386789864797C375.5,226.9386789864797,375.5,84.51979456595501,745,84.51979456595501" stroke="rgb(224, 243, 161)" stroke-width="39.35015371172852"/><title>2024 → Drama: 2351.299999996001</title></g><g style="mix-blend-mode: multiply;"><path d="M6,281.585069032733C375.5,281.585069032733,375.5,542.7508413217082,745,542.7508413217082" stroke="rgb(224, 243, 161)" stroke-width="1.5686731061346737"/><title>2024 → Romance: 93.73333333</title></g><g style="mix-blend-mode: multiply;"><path d="M6,347.2965152582554C375.5,347.2965152582554,375.5,114.27967669009576,745,114.27967669009576" stroke="rgb(254, 221, 141)" stroke-width="20.169610536552973"/><title>2023 → Drama: 1205.2000000289997</title></g><g style="mix-blend-mode: multiply;"><path d="M6,380.70445491387017C375.5,380.70445491387017,375.5,392.1908088226236,745,392.1908088226236" stroke="rgb(254, 221, 141)" stroke-width="46.646268774676635"/><title>2023 → Comedy: 2787.2666666870005</title></g><g style="mix-blend-mode: multiply;"><path d="M6,405.8566387132899C375.5,405.8566387132899,375.5,502.45477476866614,745,502.45477476866614" stroke="rgb(254, 221, 141)" stroke-width="3.6580988241628325"/><title>2023 → Documentary: 218.583333327</title></g><g style="mix-blend-mode: multiply;"><path d="M6,409.4535135427492C375.5,409.4535135427492,375.5,545.3030032921534,745,545.3030032921534" stroke="rgb(254, 221, 141)" stroke-width="3.535650834755753"/><title>2023 → Romance: 211.26666667300003</title></g><g style="mix-blend-mode: multiply;"><path d="M6,411.45047568785105C375.5,411.45047568785105,375.5,571.7310982963455,745,571.7310982963455" stroke="rgb(254, 221, 141)" stroke-width="1"/><title>2023 → Sci-Fi &amp; Fantasy: 27.383333333000003</title></g><g style="mix-blend-mode: multiply;"><path d="M6,411.98894002491403C375.5,411.98894002491403,375.5,666.7963909556047,745,666.7963909556047" stroke="rgb(254, 221, 141)" stroke-width="1"/><title>2023 → Reality: 36.96666667</title></g><g style="mix-blend-mode: multiply;"><path d="M6,436.49803236774954C375.5,436.49803236774954,375.5,146.56424669186887,745,146.56424669186887" stroke="rgb(240, 112, 74)" stroke-width="44.39952946699329"/><title>2022 → Drama: 2653.0166667290005</title></g><g style="mix-blend-mode: multiply;"><path d="M6,491.93154821431074C375.5,491.93154821431074,375.5,510.6791515837392,745,510.6791515837392" stroke="rgb(240, 112, 74)" stroke-width="12.790654805983339"/><title>2022 → Documentary: 764.2833333149997</title></g><g style="mix-blend-mode: multiply;"><path d="M6,473.33758390519887C375.5,473.33758390519887,375.5,427.71258011608205,745,427.71258011608205" stroke="rgb(240, 112, 74)" stroke-width="24.39727381224036"/><title>2022 → Comedy: 1457.8166666100005</title></g><g style="mix-blend-mode: multiply;"><path d="M6,538.97500591274C375.5,538.97500591274,375.5,681.7786974213324,745,681.7786974213324" stroke="rgb(240, 112, 74)" stroke-width="29.345957712777256"/><title>2022 → Reality: 1753.51666668</title></g><g style="mix-blend-mode: multiply;"><path d="M6,518.0401651723612C375.5,518.0401651723612,375.5,578.07482461075,745,578.07482461075" stroke="rgb(240, 112, 74)" stroke-width="12.229179173361164"/><title>2022 → Sci-Fi &amp; Fantasy: 730.7333333669999</title></g><g style="mix-blend-mode: multiply;"><path d="M6,459.9183720501625C375.5,459.9183720501625,375.5,248.99684087473412,745,248.99684087473412" stroke="rgb(240, 112, 74)" stroke-width="2.441149897832551"/><title>2022 → Crime: 145.866666667</title></g><g style="mix-blend-mode: multiply;"><path d="M6,511.15337226159437C375.5,511.15337226159437,375.5,547.8430320336176,745,547.8430320336176" stroke="rgb(240, 112, 74)" stroke-width="1.544406648172418"/><title>2022 → Romance: 92.283333337</title></g><g style="mix-blend-mode: multiply;"><path d="M6,504.3540222774053C375.5,504.3540222774053,375.5,530.1518381750758,745,530.1518381750758" stroke="rgb(240, 112, 74)" stroke-width="12.054293320205733"/><title>2022 → Thriller: 720.2833333609999</title></g><g style="mix-blend-mode: multiply;"><path d="M6,524.2283909076965C375.5,524.2283909076965,375.5,613.3371655175454,745,613.3371655175454" stroke="rgb(240, 112, 74)" stroke-width="1"/><title>2022 → Horror: 8.8</title></g><g style="mix-blend-mode: multiply;"><path d="M6,684.2504502210728C375.5,684.2504502210728,375.5,518.446510104872,745,518.446510104872" stroke="rgb(158, 1, 66)" stroke-width="2.7440622362821303"/><title>2021 → Documentary: 163.966666647</title></g><g style="mix-blend-mode: multiply;"><path d="M6,658.2702781367047C375.5,658.2702781367047,375.5,464.5193579884293,745,464.5193579884293" stroke="rgb(158, 1, 66)" stroke-width="49.21628193245413"/><title>2021 → Comedy: 2940.8333333419987</title></g><g style="mix-blend-mode: multiply;"><path d="M6,585.7146841788565C375.5,585.7146841788565,375.5,198.83071083509356,745,198.83071083509356" stroke="rgb(158, 1, 66)" stroke-width="60.13339881945601"/><title>2021 → Drama: 3593.166666635001</title></g><g style="mix-blend-mode: multiply;"><path d="M6,624.7217603795311C375.5,624.7217603795311,375.5,259.157792614597,745,259.157792614597" stroke="rgb(158, 1, 66)" stroke-width="17.880753581893153"/><title>2021 → Crime: 1068.433333324</title></g><g style="mix-blend-mode: multiply;"><path d="M6,698.2258381388605C375.5,698.2258381388605,375.5,702.2258381388605,745,702.2258381388605" stroke="rgb(158, 1, 66)" stroke-width="11.548323722279099"/><title>2021 → Reality: 690.0499999840001</title></g><g style="mix-blend-mode: multiply;"><path d="M6,687.2633959702825C375.5,687.2633959702825,375.5,550.2561499887724,745,550.2561499887724" stroke="rgb(158, 1, 66)" stroke-width="3.281829262137366"/><title>2021 → Romance: 196.10000003</title></g><g style="mix-blend-mode: multiply;"><path d="M6,688.962745348103C375.5,688.962745348103,375.5,613.4692364129519,745,613.4692364129519" stroke="rgb(158, 1, 66)" stroke-width="1"/><title>2021 → Horror: 6.983333333</title></g><g style="mix-blend-mode: multiply;"><path d="M6,690.7364281862878C375.5,690.7364281862878,375.5,629.3025121420836,745,629.3025121420836" stroke="rgb(158, 1, 66)" stroke-width="3.4304961828663507"/><title>2021 → Action &amp; Adventure: 204.983333327</title></g></g><g><text x="10" y="25.093827878431874" text-anchor="start"><tspan alignment-baseline="middle" x="10" style="font-family: Arial, sans-serif; font-size: 10px; fill: black; font-weight: bold;">2026</tspan></text><text x="741" y="114.44870512241077" text-anchor="end"><tspan alignment-baseline="middle" x="741" style="font-family: Arial, sans-serif; font-size: 10px; fill: black; font-weight: bold;">Drama</tspan></text><text x="741" y="249.49778982518256" text-anchor="end"><tspan alignment-baseline="middle" x="741" style="font-family: Arial, sans-serif; font-size: 10px; fill: black; font-weight: bold;">Crime</tspan></text><text x="741" y="379.6128341801" text-anchor="end"><tspan alignment-baseline="middle" x="741" style="font-family: Arial, sans-serif; font-size: 10px; fill: black; font-weight: bold;">Comedy</tspan></text><text x="741" y="505.4730200888347" text-anchor="end"><tspan alignment-baseline="middle" x="741" style="font-family: Arial, sans-serif; font-size: 10px; fill: black; font-weight: bold;">Documentary</tspan></text><text x="741" y="528.9987630290958" text-anchor="end"><tspan alignment-baseline="middle" x="741" style="font-family: Arial, sans-serif; font-size: 10px; fill: black; font-weight: bold;">Thriller</tspan></text><text x="741" y="545.0380247275099" text-anchor="end"><tspan alignment-baseline="middle" x="741" style="font-family: Arial, sans-serif; font-size: 10px; fill: black; font-weight: bold;">Romance</tspan></text><text x="741" y="569.0432394086358" text-anchor="end"><tspan alignment-baseline="middle" x="741" style="font-family: Arial, sans-serif; font-size: 10px; fill: black; font-weight: bold;">Sci-Fi &amp; Fantasy</tspan></text><text x="10" y="126.72562894373955" text-anchor="start"><tspan alignment-baseline="middle" x="10" style="font-family: Arial, sans-serif; font-size: 10px; fill: black; font-weight: bold;">2025</tspan></text><text x="741" y="599.8585426785671" text-anchor="end"><tspan alignment-baseline="middle" x="741" style="font-family: Arial, sans-serif; font-size: 10px; fill: black; font-weight: bold;">Horror</tspan></text><text x="741" y="623.2727156966101" text-anchor="end"><tspan alignment-baseline="middle" x="741" style="font-family: Arial, sans-serif; font-size: 10px; fill: black; font-weight: bold;">Action &amp; Adventure</tspan></text><text x="10" y="271.2376560602971" text-anchor="start"><tspan alignment-baseline="middle" x="10" style="font-family: Arial, sans-serif; font-size: 10px; fill: black; font-weight: bold;">2024</tspan></text><text x="741" y="670.5088801167584" text-anchor="end"><tspan alignment-baseline="middle" x="741" style="font-family: Arial, sans-serif; font-size: 10px; fill: black; font-weight: bold;">Reality</tspan></text><text x="10" y="374.7549888121159" text-anchor="start"><tspan alignment-baseline="middle" x="10" style="font-family: Arial, sans-serif; font-size: 10px; fill: black; font-weight: bold;">2023</tspan></text><text x="10" y="483.97312620169066" text-anchor="start"><tspan alignment-baseline="middle" x="10" style="font-family: Arial, sans-serif; font-size: 10px; fill: black; font-weight: bold;">2022</tspan></text><text x="10" y="629.8239923845642" text-anchor="start"><tspan alignment-baseline="middle" x="10" style="font-family: Arial, sans-serif; font-size: 10px; fill: black; font-weight: bold;">2021</tspan></text></g><g><text x="3" y="5.684341886080802e-14" text-anchor="middle" style="font-family: Arial, sans-serif; font-size: 12px; fill: rgb(123, 123, 123); font-weight: bold;">Año</text><text x="748" y="-4" text-anchor="middle" style="font-family: Arial, sans-serif; font-size: 12px; fill: rgb(123, 123, 123); font-weight: bold;">Género</text></g></g></svg>